<svg id="Layer_1" enable-background="new 0 0 256 256" height="512" viewBox="0 0 256 256" width="512" xmlns="http://www.w3.org/2000/svg"><path d="m125.443 13.51-115.703 85.919c-3.318 2.464-1.575 7.733 2.557 7.733h15.467c1.184 0 2.145.96 2.145 2.145v125.451c0 4.738 3.841 8.578 8.578 8.578h179.026c4.738 0 8.578-3.841 8.578-8.578v-125.451c0-1.184.96-2.145 2.145-2.145h15.467c4.132 0 5.875-5.269 2.557-7.733l-115.703-85.919c-1.518-1.127-3.596-1.127-5.114 0z" fill="#6bdddd"/><path d="m179.512 159.275h-102.746c-3.322 0-6.014-2.693-6.014-6.014v-67.464c0-3.322 2.693-6.014 6.014-6.014h102.746c3.322 0 6.014 2.693 6.014 6.014v67.463c.001 3.322-2.692 6.015-6.014 6.015z" fill="#e0ebfc"/><path d="m79.335 148.717v-58.376c0-1.578 1.279-2.857 2.857-2.857h91.895c1.578 0 2.857 1.279 2.857 2.857v58.376c0 1.578-1.279 2.857-2.857 2.857h-91.895c-1.578 0-2.857-1.279-2.857-2.857z" fill="#a4c9ff"/><path d="m179.512 161.275h-102.745c-4.419 0-8.015-3.595-8.015-8.014v-67.464c0-4.419 3.596-8.015 8.015-8.015h102.745c4.419 0 8.015 3.595 8.015 8.015v67.463c-.001 4.42-3.596 8.015-8.015 8.015zm-102.745-79.492c-2.214 0-4.015 1.801-4.015 4.015v67.463c0 2.213 1.801 4.014 4.015 4.014h102.745c2.214 0 4.015-1.801 4.015-4.014v-67.464c0-2.214-1.801-4.015-4.015-4.015h-102.745z" fill="#3762cc"/><path d="m174.086 153.574h-91.895c-2.678 0-4.856-2.179-4.856-4.857v-58.376c0-2.678 2.179-4.857 4.856-4.857h91.895c2.679 0 4.857 2.179 4.857 4.857v58.376c0 2.679-2.178 4.857-4.857 4.857zm-91.895-64.09c-.473 0-.856.384-.856.857v58.376c0 .473.384.857.856.857h91.895c.473 0 .857-.384.857-.857v-58.376c0-.473-.385-.857-.857-.857z" fill="#3762cc"/><path d="m138.454 150.165h-2.72c-.006 0-.012-.001-.018-.001l-.001.001h-17.892c-4.727 0-8.558 3.832-8.558 8.558v4.293 1.219 2.258 8.111h.399 4.631 32.716v-8.111-2.258-1.219-4.293c.001-4.727-3.83-8.558-8.557-8.558z" fill="#e0ebfc"/><path d="m145.026 125.793c-.036 0-.07.005-.106.005v-1.571c0-9.185-7.513-16.63-16.781-16.63-9.268 0-16.781 7.446-16.781 16.63v1.571c-.036-.001-.07-.005-.106-.005-2.828 0-5.12 2.271-5.12 5.074 0 2.802 2.292 5.074 5.12 5.074.186 0 .369-.011.549-.03 1.732 7.357 8.387 12.839 16.338 12.839 7.951 0 14.606-5.482 16.338-12.839.181.019.364.03.549.03 2.827 0 5.12-2.272 5.12-5.074s-2.292-5.074-5.12-5.074z" fill="#f9cfcf"/><path d="m119.8 133.991c-1.117 0-2.026-.909-2.026-2.026v-3.376c0-1.117.909-2.026 2.026-2.026s2.026.909 2.026 2.026v3.376c0 1.117-.909 2.026-2.026 2.026z" fill="#3762cc"/><path d="m136.399 133.991c-1.117 0-2.026-.909-2.026-2.026v-3.376c0-1.117.909-2.026 2.026-2.026s2.026.909 2.026 2.026v3.376c0 1.117-.909 2.026-2.026 2.026z" fill="#3762cc"/><path d="m128.139 150.75c-8.242 0-15.378-5.221-17.864-12.875-3.465-.475-6.143-3.436-6.143-7.007 0-3.25 2.217-5.995 5.228-6.82.098-10.19 8.484-18.45 18.779-18.45s18.683 8.26 18.78 18.45c3.011.825 5.228 3.57 5.228 6.82 0 3.571-2.678 6.532-6.143 7.007-2.486 7.654-9.622 12.875-17.865 12.875zm-16.336-16.839c.917 0 1.73.63 1.944 1.542 1.566 6.652 7.484 11.297 14.392 11.297s12.826-4.646 14.393-11.297c.23-.981 1.151-1.639 2.157-1.53.11.012.224.019.338.019 1.721 0 3.12-1.378 3.12-3.073 0-1.682-1.379-3.053-3.081-3.074-.068.004-.11.005-.146.005-.521 0-1.021-.203-1.395-.567-.388-.376-.605-.893-.605-1.433v-1.571c0-8.067-6.631-14.63-14.781-14.63-8.149 0-14.78 6.563-14.78 14.63v1.571c0 .54-.218 1.057-.605 1.433-.386.376-.911.587-1.448.566-.029 0-.104-.004-.134-.006-1.64.002-3.039 1.381-3.039 3.076s1.399 3.073 3.12 3.073c.114 0 .228-.007.339-.019.07-.009.14-.012.211-.012z" fill="#3762cc"/><path d="m124.63 122.946h-17.39c-.612 0-1.109-.496-1.109-1.109v-4.437c0-8.361 6.778-15.139 15.139-15.139h8.071c2.296 0 4.157 1.861 4.157 4.157v7.658c.001 4.899-3.969 8.87-8.868 8.87z" fill="#4671c6"/><path d="m149.038 122.946h-6.669c-4.898 0-8.869-3.971-8.869-8.869v-7.658c0-2.296 1.861-4.157 4.157-4.157 6.898 0 12.489 5.592 12.489 12.489v7.087c0 .612-.496 1.108-1.108 1.108z" fill="#4671c6"/><path d="m128.139 148.75c-2.742 0-5.33-.652-7.615-1.808v2.906c0 4.204 3.408 7.613 7.613 7.613 4.204 0 7.613-3.408 7.613-7.613v-2.904c-2.284 1.154-4.87 1.806-7.611 1.806z" fill="#f9cfcf"/><path d="m128.107 153.63-3.429 3.448 1.171 3.838h2.258.035 2.258l1.171-3.838-3.429-3.448z" fill="#f9a7a7"/><path d="m130.399 162.917h-4.551c-.88 0-1.656-.575-1.913-1.417l-1.171-3.838c-.215-.705-.024-1.471.495-1.994l3.429-3.448c.375-.377.886-.59 1.418-.59h.036c.532 0 1.043.212 1.418.59l3.428 3.448c.52.523.71 1.289.495 1.994l-1.171 3.838c-.256.842-1.033 1.417-1.913 1.417zm-3.07-4h1.59l.39-1.277-1.185-1.191-1.184 1.191z" fill="#3762cc"/><path d="m132.126 174.604-1.739-13.688h-4.526l-1.738 13.688z" fill="#f9a7a7"/><path d="m124.631 124.946h-17.39c-1.715 0-3.109-1.395-3.109-3.109v-4.437c0-9.45 7.688-17.139 17.139-17.139h8.071c3.396 0 6.157 2.762 6.157 6.157v7.658c0 5.994-4.875 10.87-10.868 10.87zm-16.499-4h16.499c3.787 0 6.868-3.082 6.868-6.869v-7.658c0-1.189-.968-2.157-2.157-2.157h-8.071c-7.245 0-13.139 5.894-13.139 13.139z" fill="#3762cc"/><path d="m149.037 124.946h-6.669c-5.993 0-10.869-4.876-10.869-10.869v-7.658c0-3.395 2.763-6.157 6.158-6.157 7.989 0 14.489 6.5 14.489 14.489v7.086c0 1.715-1.394 3.109-3.109 3.109zm-11.38-20.684c-1.19 0-2.158.968-2.158 2.157v7.658c0 3.788 3.081 6.869 6.869 6.869h5.778v-6.195c0-5.784-4.705-10.489-10.489-10.489z" fill="#3762cc"/><path d="m147.013 176.604h-37.747c-1.104 0-2-.896-2-2v-15.881c0-5.822 4.736-10.558 10.559-10.558h.7v-1.223c0-.695.36-1.34.952-1.704.591-.365 1.33-.396 1.95-.081 2.09 1.057 4.348 1.593 6.712 1.593 2.363 0 4.621-.535 6.709-1.591.619-.314 1.358-.283 1.95.081s.952 1.009.952 1.704v1.221h.704c5.822 0 10.559 4.736 10.559 10.558v15.881c0 1.104-.896 2-2 2zm-35.747-4h33.747v-13.881c0-3.616-2.942-6.558-6.559-6.558h-2.72c-.543 0-1.063-.221-1.44-.612s-.578-.918-.559-1.461l.011-.184c-3.601 1.119-7.616 1.12-11.219-.001l.012.185c.02.543-.182 1.07-.559 1.461s-.897.612-1.44.612h-2.716c-3.616 0-6.559 2.942-6.559 6.558v13.881z" fill="#3762cc"/><path d="m128.139 153.63-2.355 4.437c-.214.404-.768.466-1.066.119l-6.581-7.658c-.186-.216-.209-.528-.057-.769l.724-1.152c.226-.36.622-.579 1.047-.579h.674z" fill="#e0ebfc"/><path d="m125.209 160.413c-.768 0-1.502-.333-2.008-.923l-6.581-7.659c-.762-.885-.856-2.146-.235-3.135l.726-1.154c.597-.948 1.62-1.514 2.74-1.514h.674c.427 0 .842.136 1.186.389l7.614 5.602c.799.588 1.046 1.672.581 2.548l-2.354 4.437c-.412.775-1.177 1.295-2.048 1.392-.1.011-.197.017-.295.017zm-4.046-9.432 3.782 4.401.617-1.164z" fill="#3762cc"/><path d="m128.11 153.63 2.355 4.437c.214.404.768.466 1.066.119l6.581-7.658c.186-.216.209-.528.057-.769l-.724-1.152c-.226-.36-.622-.579-1.047-.579h-.674z" fill="#e0ebfc"/><path d="m131.04 160.413c-.099 0-.197-.005-.297-.017-.871-.098-1.637-.619-2.046-1.394l-2.354-4.434c-.465-.876-.218-1.961.581-2.549l7.615-5.602c.344-.253.759-.389 1.186-.389h.674c1.12 0 2.144.566 2.74 1.514l.725 1.151c.622.992.527 2.252-.234 3.138l-6.581 7.658c-.507.591-1.242.924-2.009.924zm1.189-3.287.002.003c-.001-.001-.001-.002-.002-.003zm-1.543-2.908.618 1.165 3.782-4.401z" fill="#3762cc"/><path d="m132.126 176.604h-8.003c-.574 0-1.121-.247-1.501-.678-.379-.431-.556-1.004-.483-1.574l1.738-13.688c.127-.999.978-1.748 1.984-1.748h4.526c1.007 0 1.857.749 1.984 1.748l1.738 13.688c.072.57-.104 1.143-.483 1.574s-.926.678-1.5.678zm-5.732-4h3.462l-1.229-9.688h-1.003z" fill="#3762cc"/><path d="m128.52 140.952h-.761c-.478 0-.9-.053-1.291-.163-.652-.184-1.229-.498-1.669-.909-.593-.553-.921-1.265-.921-2.003 0-.552.447-1 1-1s1 .448 1 1c0 .228.155.42.286.542.208.195.5.349.845.446.212.06.458.088.75.088h.761c.292 0 .538-.029.75-.089.345-.097.637-.25.843-.443.133-.124.288-.316.288-.543 0-.552.447-1 1-1s1 .448 1 1c0 .739-.328 1.451-.923 2.005-.438.41-1.015.724-1.667.907-.391.108-.814.162-1.291.162z" fill="#3762cc"/><path d="m201.111 175.894h-10.411c-4.927 0-8.922 3.994-8.922 8.922v5.576 8.337h28.255v-8.337-5.576c-.001-4.928-3.995-8.922-8.922-8.922z" fill="#e0ebfc"/><path d="m210.032 200.729h-28.254c-1.104 0-2-.896-2-2v-13.913c0-6.022 4.899-10.922 10.922-10.922h10.41c6.022 0 10.922 4.899 10.922 10.922v13.913c0 1.104-.895 2-2 2zm-26.254-4h24.254v-11.913c0-3.817-3.105-6.922-6.922-6.922h-10.41c-3.816 0-6.922 3.105-6.922 6.922z" fill="#3762cc"/><path d="m191.618 131.698c-8.567 0-15.512 6.945-15.512 15.513v9.105h-.755c-1.331 0-2.409 1.078-2.409 2.409s1.079 2.409 2.409 2.409h1.177c1.335 5.742 5.841 10.266 11.587 11.593v2.133.571h13.581v-2.704-1.6-1.723c3.325-2.845 5.434-7.069 5.434-11.788v-10.406c.001-8.567-6.944-15.512-15.512-15.512z" fill="#f9cfcf"/><path d="m201.696 177.43h-13.581c-1.104 0-2-.896-2-2v-1.191c-5.21-1.733-9.366-5.895-11.103-11.119-2.273-.174-4.07-2.079-4.07-4.396 0-1.999 1.337-3.691 3.163-4.23v-7.284c0-9.656 7.856-17.512 17.513-17.512s17.513 7.856 17.513 17.512v10.406c0 4.807-1.97 9.375-5.435 12.675v5.139c0 1.105-.895 2-2 2zm-11.581-4h9.581v-4.026c0-.584.256-1.14.7-1.52 3.009-2.575 4.734-6.317 4.734-10.268v-10.406c0-7.451-6.062-13.512-13.513-13.512s-13.513 6.062-13.513 13.512v9.105c0 1.104-.896 2-2 2h-.754c-.226 0-.409.184-.409.409s.184.409.409.409h1.177c.93 0 1.737.641 1.948 1.547 1.159 4.986 5.119 8.95 10.089 10.097.907.209 1.55 1.018 1.55 1.949v.704z" fill="#3762cc"/><path d="m181.778 156.441c-.79 0-1.431-.641-1.431-1.431v-2.385c0-.79.641-1.431 1.431-1.431.79 0 1.431.641 1.431 1.431v2.385c0 .791-.641 1.431-1.431 1.431z" fill="#3762cc"/><circle cx="194.031" cy="156.767" fill="#f9cfcf" r="5.492"/><path d="m209.912 136.551-.001.002c-2.768-4.228-7.712-7.046-13.354-7.046-1.2 0-2.173.921-2.173 2.057v.432c0-.508-.156-.98-.421-1.374s-.075-.152-.296-.359c-.292-.295-.656-.52-1.066-.645-.575-.23-1.378-.421-2.485-.467v-.001c-.002 0-.004 0-.006 0-1.149-.048-2.625.06-4.519.443-1.378.151-2.694.502-3.918 1.024-.005.001-.009.003-.013.004l.001.002c-.695.297-1.359.651-1.988 1.053-.274.167-.411.272-.411.273-3.534 2.437-5.845 6.47-5.845 11.036v4.94c0 .229.189.415.422.415h20.546v10.709 4.04l2.478 5.056c.07.143.218.235.38.235h1.688.603 4.144c.651 0 1.291-.093 1.901-.268.019-.008.672-.283.937-.707.625-1.001 2.097-3.359 3.437-5.513 1.988-3.197 3.117-6.848 3.206-10.594.243-10.264-3.247-14.747-3.247-14.747z" fill="#4671c6"/><path d="m203.677 170.379h-6.435c-.919 0-1.772-.532-2.176-1.355l-2.479-5.056c-.134-.274-.204-.575-.204-.88v-12.748h-18.546c-1.335 0-2.422-1.083-2.422-2.415v-4.94c0-5.032 2.496-9.763 6.681-12.662.067-.05.244-.177.531-.353.695-.443 1.453-.845 2.224-1.176.013-.005.025-.011.037-.016 1.398-.596 2.876-.987 4.394-1.162 1.838-.366 3.492-.522 4.911-.463v.001c1.219.057 2.228.25 3.077.578.343.112.671.266.978.455.662-.429 1.456-.679 2.31-.679 6.122 0 11.717 2.945 14.983 7.883.478.652 3.86 5.648 3.615 15.955-.096 4.056-1.309 8.067-3.506 11.603-1.214 1.952-2.536 4.069-3.239 5.196l-.2.319c-.511.818-1.367 1.279-1.833 1.481-.079.035-.164.065-.248.089-.799.229-1.624.345-2.453.345zm-5.452-4h5.452c.401 0 .803-.05 1.193-.148.011-.006.021-.012.03-.017l.117-.189c.703-1.125 2.024-3.241 3.236-5.19 1.82-2.928 2.824-6.243 2.904-9.585.221-9.281-2.806-13.445-2.837-13.486-.024-.033-.06-.083-.082-.117-2.519-3.845-6.886-6.14-11.682-6.14-.115 0-.17.058-.178.073l.003.34c.001.025.001.05.001.075 0 1.104-.896 2-2 2s-2-.896-2-2c0-.092-.026-.177-.079-.255-.008-.012-.017-.025-.024-.038-.111-.106-.184-.148-.262-.172-.054-.017-.107-.035-.159-.056-.314-.125-.882-.284-1.802-.325-.01 0-.021-.001-.03-.001-1.118-.044-2.479.09-4.039.405-.059.012-.119.021-.179.028-1.159.127-2.287.421-3.351.875-.02.008-.04.016-.06.024-.564.246-1.12.542-1.651.881-.189.116-.275.178-.288.188-.021.016-.041.031-.063.045-3.119 2.151-4.981 5.662-4.981 9.39v3.354h18.968c1.104 0 2 .896 2 2v14.285zm-6.196-35.244c.047.175.109.318.165.42-.071-.134-.126-.275-.165-.42zm-.066-.502s0 0 0 0z" fill="#3762cc"/><circle cx="194.031" cy="156.767" fill="#f9cfcf" r="5.492"/><path d="m205.848 177.71-2.851-4.549c-.164-.262-.472-.395-.775-.334l-17.592 3.5 1.398 5.084c.101.368.464.599.84.536l18.473-3.108c.523-.089.788-.68.507-1.129z" fill="#e0ebfc"/><path d="m185.126 185.562h-3.348v-4.711l2.852-4.525 1.576 5.732z" fill="#f9a7a7"/><path d="m185.126 185.562h-3.348v13.167h4.428z" fill="#f9a7a7"/><g fill="#3762cc"><path d="m186.738 183.958c-1.214 0-2.304-.805-2.638-2.015l-1.399-5.087c-.147-.536-.064-1.108.227-1.581.292-.473.768-.803 1.312-.911l17.592-3.5c1.107-.222 2.26.275 2.86 1.233l2.851 4.55h.001c.487.778.554 1.743.177 2.581-.376.837-1.142 1.428-2.047 1.581l-18.473 3.108c-.156.028-.31.041-.463.041zm.39-6.09.528 1.918 15.498-2.608-1.392-2.221z"/><path d="m185.126 187.562h-3.348c-1.104 0-2-.896-2-2v-4.711c0-.377.106-.747.308-1.066l2.852-4.525c.422-.67 1.19-1.032 1.985-.912.784.116 1.426.684 1.636 1.448l1.576 5.732c.101.367.095.755-.018 1.119l-1.08 3.504c-.259.839-1.033 1.411-1.911 1.411zm-1.348-6.134v1.716l.345-1.118-.219-.797z"/><path d="m186.206 200.729h-4.428c-1.104 0-2-.896-2-2v-13.167c0-1.104.896-2 2-2h3.348c1.041 0 1.908.799 1.993 1.836l1.08 13.167c.046.557-.144 1.108-.522 1.519-.379.411-.912.645-1.471.645zm-2.428-4h.257l-.257-3.132z"/><path d="m180.169 165.645h-.731c-.553 0-1-.448-1-1s.447-1 1-1h.731c.278 0 .511-.027.71-.083.327-.092.603-.236.796-.418.1-.093.266-.28.266-.495 0-.552.447-1 1-1s1 .448 1 1c0 .719-.319 1.414-.899 1.956-.426.398-.986.704-1.62.882-.379.106-.789.158-1.253.158z"/></g><path d="m54.889 175.894h10.411c4.927 0 8.922 3.994 8.922 8.922v5.576 8.337h-28.254v-8.337-5.576c0-4.928 3.994-8.922 8.921-8.922z" fill="#e0ebfc"/><path d="m74.222 200.729h-28.254c-1.104 0-2-.896-2-2v-13.913c0-6.022 4.899-10.922 10.922-10.922h10.41c6.022 0 10.922 4.899 10.922 10.922v13.913c0 1.104-.896 2-2 2zm-26.254-4h24.254v-11.913c0-3.817-3.105-6.922-6.922-6.922h-10.41c-3.816 0-6.922 3.105-6.922 6.922z" fill="#3762cc"/><path d="m64.382 131.698c8.567 0 15.512 6.945 15.512 15.513v9.105h.755c1.331 0 2.409 1.078 2.409 2.409s-1.079 2.409-2.409 2.409h-1.177c-1.335 5.742-5.841 10.266-11.587 11.593v2.133.571h-13.582v-2.704-1.6-1.723c-3.325-2.845-5.434-7.069-5.434-11.788v-10.406c0-8.567 6.945-15.512 15.513-15.512z" fill="#f9cfcf"/><path d="m67.885 177.43h-13.581c-1.104 0-2-.896-2-2v-5.139c-3.465-3.301-5.435-7.869-5.435-12.675v-10.406c0-9.656 7.856-17.512 17.513-17.512s17.513 7.856 17.513 17.512v7.284c1.826.539 3.163 2.231 3.163 4.23 0 2.317-1.797 4.223-4.07 4.396-1.736 5.224-5.893 9.386-11.103 11.119v1.191c0 1.105-.896 2-2 2zm-11.581-4h9.581v-.704c0-.931.643-1.739 1.55-1.949 4.97-1.147 8.93-5.111 10.089-10.097.211-.906 1.019-1.547 1.948-1.547h1.177c.226 0 .409-.184.409-.409s-.184-.409-.409-.409h-.754c-1.104 0-2-.896-2-2v-9.105c0-7.451-6.062-13.512-13.513-13.512s-13.513 6.062-13.513 13.512v10.406c0 3.951 1.726 7.693 4.734 10.268.444.38.7.935.7 1.52v4.026z" fill="#3762cc"/><path d="m74.222 156.441c.79 0 1.431-.641 1.431-1.431v-2.385c0-.79-.641-1.431-1.431-1.431-.79 0-1.431.641-1.431 1.431v2.385c0 .791.641 1.431 1.431 1.431z" fill="#3762cc"/><circle cx="61.969" cy="156.767" fill="#f9cfcf" r="5.492"/><path d="m46.088 136.551.001.002c2.768-4.228 7.712-7.046 13.354-7.046 1.2 0 2.173.921 2.173 2.057v.432c0-.508.156-.98.421-1.374s.075-.152.296-.359c.292-.295.656-.52 1.066-.645.575-.23 1.378-.421 2.485-.467v-.001h.006c1.149-.048 2.625.06 4.519.443 1.378.151 2.694.502 3.918 1.024.005.001.009.003.013.004l-.001.002c.695.297 1.359.651 1.988 1.053.274.167.411.272.411.273 3.534 2.437 5.845 6.47 5.845 11.036v4.94c0 .229-.189.415-.422.415h-20.545v10.709 4.04l-2.478 5.056c-.07.143-.218.235-.38.235h-1.688-.603-4.144c-.651 0-1.291-.093-1.901-.268-.019-.008-.672-.283-.937-.707-.625-1.001-2.097-3.359-3.437-5.513-1.988-3.197-3.117-6.848-3.206-10.594-.244-10.264 3.246-14.747 3.246-14.747z" fill="#4671c6"/><path d="m58.758 170.379h-6.435c-.829 0-1.654-.116-2.453-.346-.091-.026-.179-.058-.265-.097-.449-.195-1.306-.656-1.816-1.474l-.2-.319c-.703-1.127-2.025-3.245-3.239-5.196-2.197-3.535-3.41-7.547-3.506-11.603-.243-10.214 3.078-15.213 3.602-15.936 3.265-4.949 8.867-7.901 14.997-7.901.853 0 1.646.25 2.308.678.301-.185.633-.34.979-.454.867-.335 1.899-.53 3.068-.579.011 0 .021-.001.032-.001 1.422-.059 3.061.1 4.888.464 1.499.173 2.959.557 4.342 1.141.024.009.049.019.071.029.778.335 1.543.74 2.271 1.205.263.161.436.285.502.334 4.184 2.9 6.68 7.63 6.68 12.662v4.94c0 1.332-1.087 2.415-2.422 2.415h-18.546v12.749c0 .305-.07.606-.204.88l-2.479 5.056c-.403.822-1.256 1.353-2.175 1.353zm-7.629-4.148c.391.099.792.148 1.194.148h5.452l1.841-3.755v-14.284c0-1.104.896-2 2-2h18.968v-3.354c0-3.729-1.862-7.239-4.981-9.39-.021-.015-.042-.03-.063-.045-.013-.009-.099-.071-.258-.168-.579-.369-1.151-.672-1.729-.919-.012-.005-.023-.01-.034-.015-1.058-.448-2.177-.739-3.328-.865-.06-.007-.12-.016-.179-.028-1.559-.315-2.915-.449-4.039-.405-.033.002-.064.002-.1.002-.844.039-1.416.198-1.732.324-.052.021-.105.04-.159.056-.084.026-.162.073-.225.137-.04.037-.032.029.011-.042-.023.039-.047.077-.072.114-.053.078-.079.165-.079.256 0 1.104-.896 2-2 2s-2-.896-2-2v-.432c-.005 0-.06-.057-.174-.057-4.796 0-9.163 2.296-11.682 6.142-.026.041-.055.079-.085.118-.094.13-3.052 4.304-2.834 13.483.08 3.342 1.084 6.657 2.904 9.585 1.212 1.949 2.533 4.064 3.236 5.19l.118.189c.009.004.019.009.029.015zm-5.041-29.68h.01zm17.703-4.968c-.001 0-.001.001-.002.002.001 0 .001-.001.002-.002zm.034-.066c-.011.022-.022.044-.034.065.011-.019.022-.04.034-.065zm.002-.004c0 .001-.001.002-.002.004.001-.001.002-.002.002-.004zm.002-.003c-.001.001-.001.002-.002.003.001-.001.001-.002.002-.003zm.002-.004c-.001.001-.001.002-.002.003.001-.001.001-.002.002-.003zm.002-.005c-.001.001-.001.002-.002.003.001 0 .001-.001.002-.003zm.002-.003c0 .001-.001.002-.002.003.001-.001.002-.002.002-.003z" fill="#3762cc"/><circle cx="61.969" cy="156.767" fill="#f9cfcf" r="5.492"/><path d="m50.152 177.71 2.851-4.549c.164-.262.472-.395.775-.334l17.592 3.5-1.398 5.084c-.101.368-.464.599-.84.536l-18.473-3.108c-.523-.089-.788-.68-.507-1.129z" fill="#e0ebfc"/><path d="m70.874 185.562h3.348v-4.711l-2.852-4.525-1.576 5.732z" fill="#f9a7a7"/><path d="m70.874 185.562h3.348v13.167h-4.428z" fill="#f9a7a7"/><path d="m69.262 183.958c-.153 0-.308-.013-.463-.039l-18.472-3.108c-.905-.152-1.671-.743-2.047-1.581-.377-.838-.311-1.803.177-2.581h.001l2.851-4.549c.601-.958 1.746-1.455 2.859-1.234l17.593 3.5c.544.108 1.02.438 1.312.911.291.473.374 1.045.227 1.581l-1.4 5.082c-.335 1.212-1.423 2.018-2.638 2.018zm-16.416-6.78 15.498 2.608.528-1.918-14.635-2.911z" fill="#3762cc"/><path d="m74.222 187.562h-3.348c-.878 0-1.652-.572-1.911-1.411l-1.08-3.504c-.112-.364-.118-.752-.018-1.119l1.576-5.732c.21-.764.852-1.332 1.636-1.448.787-.116 1.563.243 1.985.912l2.852 4.525c.201.319.308.689.308 1.066v4.711c0 1.105-.896 2-2 2zm-2.345-5.536.345 1.118v-1.716l-.126-.199z" fill="#3762cc"/><path d="m74.222 200.729h-4.428c-.559 0-1.092-.234-1.471-.645s-.568-.961-.522-1.519l1.08-13.167c.085-1.038.952-1.836 1.993-1.836h3.348c1.104 0 2 .896 2 2v13.167c0 1.104-.896 2-2 2zm-2.257-4h.257v-3.132z" fill="#3762cc"/><path d="m76.563 165.645h-.731c-.464 0-.874-.052-1.253-.159-.633-.178-1.193-.483-1.62-.883-.579-.541-.898-1.235-.898-1.955 0-.552.447-1 1-1s1 .448 1 1c0 .215.166.401.265.494.194.183.47.327.796.418.2.057.433.084.711.084h.731c.553 0 1 .448 1 1s-.449 1.001-1.001 1.001z" fill="#3762cc"/><path d="m168.947 174.717c-.719-.983-2.34-1.617-4.132-1.617h-35.322-2.752-35.321c-1.792 0-3.413.635-4.132 1.617l-28.629 39.138h68.083 2.752 68.083z" fill="#f9cfcf"/><path d="m197.576 215.856h-138.917c-.753 0-1.442-.423-1.783-1.095s-.275-1.478.169-2.086l28.629-39.139c1.1-1.503 3.302-2.437 5.746-2.437h73.396c2.444 0 4.646.934 5.746 2.436l28.629 39.139c.444.608.51 1.414.169 2.086-.341.673-1.031 1.096-1.784 1.096zm-134.976-4h131.036l-26.303-35.958c-.242-.332-1.184-.798-2.518-.798h-73.395c-1.334 0-2.275.467-2.518.798z" fill="#3762cc"/><path d="m58.659 213.856h138.918v9.213c0 1.648-1.336 2.984-2.984 2.984h-132.95c-1.648 0-2.984-1.336-2.984-2.984z" fill="#a4c9ff"/><path d="m194.593 228.053h-132.95c-2.748 0-4.983-2.236-4.983-4.984v-9.213c0-1.104.896-2 2-2h138.917c1.104 0 2 .896 2 2v9.213c-.001 2.748-2.236 4.984-4.984 4.984zm-133.934-12.197v7.213c0 .542.441.984.983.984h132.95c.542 0 .983-.441.983-.984v-7.213z" fill="#3762cc"/><path d="m217.513 245.335h-179.027c-5.833 0-10.578-4.745-10.578-10.578v-125.45c0-.08-.064-.145-.145-.145h-15.465c-2.761 0-5.104-1.693-5.972-4.314-.866-2.621.005-5.378 2.222-7.024l115.703-85.919c2.242-1.666 5.256-1.666 7.498 0l115.703 85.919c2.217 1.646 3.088 4.403 2.222 7.024-.867 2.621-3.211 4.314-5.972 4.314h-15.467c-.08 0-.145.065-.145.145v125.451c.001 5.832-4.744 10.577-10.577 10.577zm-89.513-230.674c-.479 0-.956.151-1.364.455l-115.703 85.919c-1.232.916-.931 2.188-.809 2.557.122.368.639 1.57 2.174 1.57h15.466c2.285 0 4.145 1.859 4.145 4.145v125.451c0 3.627 2.951 6.578 6.578 6.578h179.026c3.627 0 6.578-2.951 6.578-6.578v-125.451c0-2.285 1.859-4.145 4.145-4.145h15.467c1.535 0 2.052-1.202 2.174-1.57.122-.369.424-1.642-.809-2.557l-115.704-85.92c-.408-.302-.886-.454-1.364-.454zm-2.557-1.151h.01z" fill="#3762cc"/></svg>