<?xml version="1.0" ?><svg enable-background="new 0 0 512 512" id="Layer_1" version="1.1" viewBox="0 0 512 512" xml:space="preserve" xmlns="http://www.w3.org/2000/svg" xmlns:xlink="http://www.w3.org/1999/xlink"><g><g><linearGradient gradientUnits="userSpaceOnUse" id="SVGID_1_" x1="-0.0000027" x2="512" y1="256" y2="256"><stop offset="0" style="stop-color:#8DC63F"/><stop offset="1" style="stop-color:#76B83F"/></linearGradient><circle cx="256" cy="256" fill="url(#SVGID_1_)" r="256"/><linearGradient gradientUnits="userSpaceOnUse" id="SVGID_2_" x1="42.6666641" x2="469.3333435" y1="256.0005188" y2="256.0005188"><stop offset="0" style="stop-color:#76B83F"/><stop offset="1" style="stop-color:#8DC63F"/></linearGradient><path d="M256,469.3338623c-117.6314697,0-213.3333435-95.7018738-213.3333435-213.3333435    c0-117.6309204,95.7018661-213.333313,213.3333435-213.333313c117.6357422,0,213.3333435,95.7024002,213.3333435,213.333313    C469.3333435,373.6319885,373.6357422,469.3338623,256,469.3338623z" fill="url(#SVGID_2_)"/></g><path d="M264,164.6986694c-66.2741394,0-120,39.0095978-120,87.1311951   c0,27.3589478,17.366394,51.7733459,44.5312042,67.7471924l-12.2981415,43.724823l58.0016022-27.041626   c9.5184021,1.7642822,19.4906616,2.7018738,29.7653351,2.7018738c66.2735901,0,120-39.0112,120-87.1322632   C384,203.7082672,330.2735901,164.6986694,264,164.6986694z M198.7919922,210.5418701h130.4176025v10H198.7919922V210.5418701z    M329.2095947,290.5418701H198.7919922v-10h130.4176025V290.5418701z M351.9168091,255.5418701h-175.83255v-10h175.83255   V255.5418701z" opacity="0.3"/><path d="M256,156.6986694c-66.2741394,0-120,39.0095978-120,87.1311951   c0,27.3589478,17.366394,51.7733459,44.5312042,67.7471924l-12.2981415,43.724823l58.0016022-27.041626   c9.5184021,1.7642822,19.4906616,2.7018738,29.7653351,2.7018738c66.2735901,0,120-39.0112,120-87.1322632   C376,195.7082672,322.2735901,156.6986694,256,156.6986694z M190.7919922,202.5418701h130.4176025v10H190.7919922V202.5418701z    M321.2095947,282.5418701H190.7919922v-10h130.4176025V282.5418701z M343.9168091,247.5418701h-175.83255v-10h175.83255   V247.5418701z" fill="#FFFFFF"/></g></svg>