<?xml version="1.0" encoding="iso-8859-1"?>
<!-- Generator: Adobe Illustrator 19.0.0, SVG Export Plug-In . SVG Version: 6.00 Build 0)  -->
<svg version="1.1" id="Capa_1" xmlns="http://www.w3.org/2000/svg" xmlns:xlink="http://www.w3.org/1999/xlink" x="0px" y="0px"
	 viewBox="0 0 512 512" style="enable-background:new 0 0 512 512;" xml:space="preserve">
<path style="fill:#FD7034;" d="M512,256c0,87.448-43.844,164.655-110.759,210.829c-2.999,2.079-6.05,4.086-9.143,6.029
	c-3.772,2.372-7.617,4.65-11.515,6.823C343.709,500.276,301.234,512,256,512C114.615,512,0,397.385,0,256S114.615,0,256,0
	S512,114.615,512,256z"/>
<path style="fill:#FD8B59;" d="M469.3,213.3c0,72.862-36.531,137.191-92.285,175.664c-2.498,1.732-5.041,3.404-7.618,5.024
	C336.549,414.655,297.676,426.6,256,426.6c-117.803,0-213.3-95.497-213.3-213.3S138.197,0,256,0S469.3,95.497,469.3,213.3z"/>
<path style="fill:#EDEDED;" d="M321.963,27.169H41.661c-10.313,0-18.673,8.36-18.673,18.673v184.453
	c0,10.313,8.36,18.673,18.673,18.673h33.572v68.963l89.736-68.963h156.995c10.313,0,18.673-8.36,18.673-18.673V45.843
	C340.637,35.53,332.276,27.169,321.963,27.169z"/>
<g>
	<path style="fill:#474F70;" d="M293.094,85.965H67.396c-6.636,0-12.016-5.38-12.016-12.016l0,0c0-6.636,5.38-12.016,12.016-12.016
		h225.698c6.636,0,12.016,5.38,12.016,12.016l0,0C305.11,80.585,299.73,85.965,293.094,85.965z"/>
	<path style="fill:#474F70;" d="M293.094,128.806H67.396c-6.636,0-12.016-5.38-12.016-12.016l0,0c0-6.636,5.38-12.016,12.016-12.016
		h225.698c6.636,0,12.016,5.38,12.016,12.016l0,0C305.11,123.425,299.73,128.806,293.094,128.806z"/>
	<path style="fill:#474F70;" d="M293.094,171.646H67.396c-6.636,0-12.016-5.38-12.016-12.016l0,0c0-6.636,5.38-12.016,12.016-12.016
		h225.698c6.636,0,12.016,5.38,12.016,12.016l0,0C305.11,166.266,299.73,171.646,293.094,171.646z"/>
	<path style="fill:#474F70;" d="M293.094,214.487H67.396c-6.636,0-12.016-5.38-12.016-12.016l0,0c0-6.636,5.38-12.016,12.016-12.016
		h225.698c6.636,0,12.016,5.38,12.016,12.016l0,0C305.11,209.107,299.73,214.487,293.094,214.487z"/>
</g>
<path style="fill:#55CEED;" d="M453.486,223.472v184.456c0,10.313-8.359,18.672-18.672,18.672h-33.573v40.229
	c-2.999,2.079-6.05,4.086-9.143,6.029c-3.772,2.372-7.617,4.65-11.515,6.823L311.505,426.6H154.509
	c-10.313,0-18.672-8.359-18.672-18.672V223.472c0-10.313,8.359-18.672,18.672-18.672h280.304
	C445.127,204.8,453.486,213.159,453.486,223.472z"/>
<g>
	<path style="fill:#474F70;" d="M407.509,262.553H181.811c-6.636,0-12.016-5.38-12.016-12.016l0,0
		c0-6.636,5.38-12.016,12.016-12.016h225.698c6.636,0,12.016,5.38,12.016,12.016l0,0
		C419.525,257.172,414.146,262.553,407.509,262.553z"/>
	<path style="fill:#474F70;" d="M407.509,305.393H181.811c-6.636,0-12.016-5.38-12.016-12.016l0,0
		c0-6.636,5.38-12.016,12.016-12.016h225.698c6.636,0,12.016,5.38,12.016,12.016l0,0
		C419.525,300.013,414.146,305.393,407.509,305.393z"/>
	<path style="fill:#474F70;" d="M407.509,348.234H181.811c-6.636,0-12.016-5.38-12.016-12.016l0,0
		c0-6.636,5.38-12.016,12.016-12.016h225.698c6.636,0,12.016,5.38,12.016,12.016l0,0
		C419.525,342.854,414.146,348.234,407.509,348.234z"/>
	<path style="fill:#474F70;" d="M301.452,391.075H181.811c-6.636,0-12.016-5.38-12.016-12.016l0,0
		c0-6.636,5.38-12.016,12.016-12.016h119.641c6.636,0,12.016,5.38,12.016,12.016l0,0
		C313.468,385.695,308.089,391.075,301.452,391.075z"/>
</g>
<g>
</g>
<g>
</g>
<g>
</g>
<g>
</g>
<g>
</g>
<g>
</g>
<g>
</g>
<g>
</g>
<g>
</g>
<g>
</g>
<g>
</g>
<g>
</g>
<g>
</g>
<g>
</g>
<g>
</g>
</svg>
