<svg xmlns="http://www.w3.org/2000/svg" height="512pt" version="1.1" viewBox="0 -57 512.00109 512" width="512pt">
<g id="surface1">
<path d="M 269.515625 90.367188 L 268.539062 90.316406 C 242.671875 88.992188 215.921875 87.621094 189.601562 86.644531 L 187.894531 86.582031 L 186.96875 88.019531 C 185.570312 90.191406 184.613281 91.5 184.300781 91.867188 C 180.425781 96.410156 175.632812 100.320312 170.050781 103.484375 L 168.078125 104.601562 L 178.226562 146.085938 C 178.285156 146.324219 178.171875 146.574219 177.96875 146.679688 C 177.890625 146.71875 177.796875 146.742188 177.710938 146.742188 C 177.621094 146.742188 177.445312 146.71875 177.3125 146.5625 L 146.917969 111.367188 L 145.28125 111.617188 C 143.09375 111.945312 141.082031 112.195312 139.128906 112.375 C 138.4375 112.4375 137.621094 112.527344 136.742188 112.628906 L 136.609375 112.648438 C 133.714844 112.972656 130.429688 113.34375 127.179688 113.34375 C 121.179688 113.34375 117.355469 112.078125 115.484375 109.480469 C 113.726562 107.035156 114.546875 103.628906 115.035156 101.59375 L 119.542969 82.847656 L 59.324219 75.570312 L 58.996094 78.585938 C 50.96875 152.320312 32.941406 224.625 5.425781 293.488281 L 4.242188 296.445312 L 7.261719 297.449219 C 72.738281 319.265625 140.777344 333.382812 209.488281 339.410156 C 210.695312 339.519531 212.117188 339.625 213.511719 339.625 C 215.785156 339.625 219.089844 339.382812 221.53125 337.273438 C 223.507812 335.5625 224.460938 333.09375 225.496094 330.050781 C 228.386719 321.589844 231.230469 312.984375 233.957031 304.46875 C 239.894531 285.9375 244.175781 270.957031 247.917969 257.53125 L 248.128906 256.777344 L 246.957031 251.9375 C 245.347656 245.203125 243.59375 238.34375 241.898438 231.707031 L 241.816406 231.375 C 239.398438 221.957031 236.65625 211.28125 234.339844 200.816406 C 234.121094 199.800781 233.550781 196.910156 232.734375 192.660156 C 229.082031 173.875 224.667969 151.753906 222.9375 147.40625 L 222.75 146.933594 L 222.417969 146.550781 C 222.367188 146.492188 222.28125 146.371094 222.277344 146.203125 C 222.269531 145.914062 222.496094 145.675781 222.792969 145.660156 L 224.875 145.554688 C 230.683594 145.257812 236.5 144.964844 242.304688 144.660156 C 253.003906 144.109375 263.839844 143.558594 274.738281 143.019531 L 277.0625 142.902344 L 277.53125 140.625 C 277.746094 139.5625 278.003906 138.246094 278.292969 136.75 L 278.820312 134.015625 C 280.292969 126.476562 282.308594 116.148438 284.183594 107.359375 C 285.453125 101.394531 286.285156 97.644531 287.03125 94.917969 L 288.019531 91.316406 L 284.292969 91.125 C 279.363281 90.875 274.4375 90.625 269.515625 90.367188 Z M 83.070312 234.78125 L 84.855469 230.636719 C 84.839844 232.132812 84.847656 233.628906 84.886719 235.128906 Z M 105.671875 235.675781 L 103.945312 234.96875 L 106.503906 231.179688 Z M 105.671875 235.675781 " style=" stroke:none;fill-rule:nonzero;fill:rgb(94.117647%,94.901961%,98.039216%);fill-opacity:1;" />
<path d="M 348.144531 161.871094 L 344.894531 160.492188 L 338.308594 187.417969 L 343.492188 190.09375 L 363.742188 166.621094 L 358.984375 165.457031 C 355.1875 164.527344 351.640625 163.355469 348.144531 161.871094 Z M 348.144531 161.871094 " style=" stroke:none;fill-rule:nonzero;fill:rgb(57.647059%,60.784314%,66.666667%);fill-opacity:1;" />
<path d="M 163.867188 106.515625 C 160.308594 108.015625 156.761719 109.191406 153.015625 110.109375 L 148.261719 111.273438 L 168.511719 134.730469 L 173.695312 132.058594 L 167.109375 105.152344 Z M 163.867188 106.515625 " style=" stroke:none;fill-rule:nonzero;fill:rgb(57.647059%,60.784314%,66.666667%);fill-opacity:1;" />
<path d="M 453.003906 133.9375 L 452.675781 130.917969 L 392.457031 138.207031 L 396.964844 156.953125 C 397.453125 158.988281 398.273438 162.394531 396.511719 164.832031 C 394.648438 167.429688 390.824219 168.691406 384.820312 168.691406 C 381.589844 168.691406 378.324219 168.324219 375.445312 168 L 375.273438 167.980469 C 374.496094 167.890625 373.777344 167.816406 373.152344 167.753906 L 372.875 167.722656 C 370.933594 167.546875 368.921875 167.296875 366.71875 166.964844 L 365.082031 166.71875 L 334.6875 201.914062 C 334.546875 202.078125 334.375 202.101562 334.289062 202.101562 C 334.210938 202.101562 334.136719 202.082031 334.046875 202.035156 C 333.828125 201.921875 333.714844 201.675781 333.773438 201.433594 L 343.921875 159.949219 L 341.949219 158.832031 C 336.375 155.667969 331.578125 151.761719 327.691406 147.210938 C 327.402344 146.878906 326.457031 145.578125 325.027344 143.371094 L 324.101562 141.941406 L 322.398438 142.003906 C 295.273438 143 267.160156 144.449219 242.355469 145.726562 L 223.921875 146.675781 L 224.917969 150.28125 L 225.140625 151.128906 C 225.898438 154.074219 226.847656 158.230469 227.964844 163.488281 C 230.125 173.597656 232.496094 185.863281 233.773438 192.457031 C 234.605469 196.722656 235.167969 199.59375 235.386719 200.566406 C 237.554688 210.390625 240.082031 220.292969 242.523438 229.871094 L 242.839844 231.117188 C 244.476562 237.5 246.332031 244.738281 248 251.679688 C 257.195312 290.046875 267.019531 325.421875 278.039062 359.824219 C 280.761719 368.34375 283.609375 376.949219 286.496094 385.398438 C 287.535156 388.445312 288.488281 390.910156 290.460938 392.617188 C 292.898438 394.734375 296.195312 394.980469 298.460938 394.980469 C 299.871094 394.980469 301.304688 394.867188 302.507812 394.757812 C 371.238281 388.730469 439.277344 374.613281 504.734375 352.804688 L 507.753906 351.800781 L 506.570312 348.847656 C 479.054688 279.96875 461.03125 207.664062 453.003906 133.9375 Z M 298.988281 320.8125 L 300.730469 317.171875 L 300.765625 321.207031 Z M 355.316406 310.980469 C 355.292969 310.5625 355.195312 310.136719 355.054688 309.726562 L 357.007812 309.230469 C 357.070312 309.675781 357.167969 310.101562 357.257812 310.488281 L 357.316406 310.757812 Z M 364.792969 216.894531 L 364.148438 213.382812 L 366.394531 216.160156 Z M 424.601562 303.324219 L 424.28125 299.597656 L 426.292969 302.75 Z M 424.601562 303.324219 " style=" stroke:none;fill-rule:nonzero;fill:rgb(100%,100%,100%);fill-opacity:1;" />
<path d="M 180.085938 70.097656 C 170.574219 87.910156 151.445312 100.59375 131.351562 102.414062 C 130.265625 102.511719 129.171875 102.5625 128.101562 102.5625 C 124.898438 102.5625 122.15625 102.054688 119.949219 101.054688 L 116.480469 99.488281 L 115.765625 103.226562 C 115.40625 105.105469 115.191406 107.242188 116.347656 108.855469 C 118.015625 111.164062 121.433594 112.238281 127.101562 112.238281 C 130.71875 112.238281 134.558594 111.796875 136.605469 111.5625 C 137.515625 111.464844 138.34375 111.375 139.027344 111.308594 C 148.796875 110.40625 157.144531 108.367188 164.550781 105.070312 C 171.980469 101.769531 178.53125 96.960938 183.507812 91.152344 C 185.269531 89.058594 191.167969 79.625 192.675781 75.148438 L 193.597656 72.40625 L 181.324219 67.773438 Z M 180.085938 70.097656 " style=" stroke:none;fill-rule:nonzero;fill:rgb(79.607843%,89.803922%,50.196078%);fill-opacity:1;" />
<path d="M 102.789062 52.324219 C 109.46875 55.730469 116.835938 57.542969 124.226562 57.542969 C 126.019531 57.542969 127.816406 57.433594 129.570312 57.21875 C 139.179688 56.03125 147.820312 51.824219 153.894531 45.367188 C 160.191406 38.675781 163.464844 29.554688 162.65625 20.960938 L 162.59375 20.265625 L 162.230469 19.671875 C 159.171875 14.691406 154.265625 10.488281 148.425781 7.851562 C 146.664062 7.046875 144.835938 6.382812 142.976562 5.839844 L 142.996094 5.757812 L 140.078125 5.09375 C 140.0625 5.09375 140.046875 5.089844 140.03125 5.085938 L 137.132812 4.472656 L 137.117188 4.546875 C 135.949219 4.371094 134.746094 4.242188 133.515625 4.15625 C 132.542969 4.09375 131.558594 4.0625 130.589844 4.0625 C 121.410156 4.0625 112.351562 6.921875 105.074219 12.121094 C 96.648438 18.15625 89.023438 29.613281 90.980469 41.5625 C 91.070312 42.164062 91.199219 42.789062 91.386719 43.515625 L 91.605469 44.351562 L 92.230469 44.941406 C 93.769531 46.394531 95.433594 47.726562 97.183594 48.957031 L 96.960938 49.117188 L 101.070312 51.425781 C 101.074219 51.429688 101.078125 51.429688 101.085938 51.433594 L 102.734375 52.363281 Z M 102.789062 52.324219 " style=" stroke:none;fill-rule:nonzero;fill:rgb(79.607843%,89.803922%,50.196078%);fill-opacity:1;" />
<path d="M 409.148438 116.117188 C 409.683594 115.671875 410.195312 115.203125 410.710938 114.730469 L 407.453125 109.785156 C 401.328125 112.53125 394.589844 113.980469 387.960938 113.980469 C 386.058594 113.980469 384.152344 113.863281 382.296875 113.632812 C 372.460938 112.421875 363.59375 108.09375 357.335938 101.457031 C 355.375 99.367188 353.667969 97.023438 352.265625 94.488281 L 346.691406 96.492188 C 347.746094 102.15625 349.847656 107.980469 351.761719 112.933594 L 351.925781 113.355469 L 352.203125 113.710938 C 352.40625 113.964844 352.625 114.207031 352.832031 114.457031 L 352.15625 114.992188 C 352.066406 115.058594 352.015625 115.082031 352.019531 115.082031 L 328.800781 123.839844 L 330.457031 126.867188 C 340.347656 144.960938 359.976562 157.855469 380.464844 159.71875 C 381.664062 159.828125 382.828125 159.882812 383.921875 159.882812 C 387.871094 159.882812 391.1875 159.15625 393.785156 157.730469 L 395.792969 156.625 L 388.996094 128.402344 L 389.480469 128.105469 C 396.269531 124.667969 403.277344 121.109375 409.148438 116.117188 Z M 409.148438 116.117188 " style=" stroke:none;fill-rule:nonzero;fill:rgb(96.862745%,70.196078%,43.529412%);fill-opacity:1;" />
<path d="M 406.925781 67.480469 C 399.660156 62.285156 390.605469 59.421875 381.425781 59.421875 C 380.449219 59.421875 379.460938 59.453125 378.492188 59.519531 C 377.285156 59.59375 376.082031 59.726562 374.886719 59.902344 L 374.867188 59.820312 L 371.96875 60.4375 C 371.964844 60.4375 371.964844 60.4375 371.960938 60.4375 C 371.953125 60.4375 371.945312 60.441406 371.941406 60.441406 L 369.003906 61.089844 L 369.027344 61.191406 C 367.167969 61.734375 365.339844 62.394531 363.582031 63.199219 C 357.722656 65.855469 352.816406 70.058594 349.769531 75.035156 L 349.40625 75.625 L 349.34375 76.320312 C 348.535156 84.90625 351.808594 94.027344 358.105469 100.714844 C 364.179688 107.171875 372.820312 111.378906 382.429688 112.566406 C 384.191406 112.785156 385.996094 112.898438 387.800781 112.898438 C 395.1875 112.898438 402.546875 111.082031 409.214844 107.667969 L 409.269531 107.707031 L 410.929688 106.773438 C 410.929688 106.773438 410.933594 106.773438 410.933594 106.773438 L 415.046875 104.453125 L 414.824219 104.296875 C 416.570312 103.070312 418.230469 101.738281 419.765625 100.289062 L 420.394531 99.699219 L 420.613281 98.863281 C 420.796875 98.152344 420.929688 97.515625 421.007812 96.972656 C 422.980469 84.957031 415.355469 73.503906 406.925781 67.480469 Z M 406.925781 67.480469 " style=" stroke:none;fill-rule:nonzero;fill:rgb(97.647059%,84.705882%,53.72549%);fill-opacity:1;" />
<path d="M 395.519531 154.824219 L 392.042969 156.414062 C 389.855469 157.414062 387.113281 157.921875 383.902344 157.921875 C 382.910156 157.921875 381.816406 157.871094 380.652344 157.765625 C 360.558594 155.945312 341.429688 143.265625 331.917969 125.457031 L 330.679688 123.136719 L 318.402344 127.753906 L 319.328125 130.5 C 320.835938 134.972656 326.734375 144.410156 328.511719 146.519531 C 333.457031 152.304688 340.007812 157.113281 347.449219 160.421875 C 354.855469 163.71875 363.207031 165.757812 372.960938 166.65625 C 373.648438 166.722656 374.46875 166.8125 375.457031 166.929688 C 377.667969 167.175781 381.367188 167.589844 384.902344 167.589844 C 390.574219 167.589844 393.992188 166.515625 395.664062 164.191406 C 396.808594 162.582031 396.597656 160.449219 396.238281 158.578125 Z M 395.519531 154.824219 " style=" stroke:none;fill-rule:nonzero;fill:rgb(97.647059%,84.705882%,53.72549%);fill-opacity:1;" />
<path d="M 159.84375 59.644531 L 159.160156 59.105469 C 159.371094 58.855469 159.589844 58.609375 159.796875 58.347656 L 160.074219 57.996094 L 160.238281 57.574219 C 162.148438 52.640625 164.246094 46.832031 165.308594 41.144531 L 159.734375 39.136719 C 158.332031 41.675781 156.625 44.019531 154.667969 46.105469 C 148.414062 52.738281 139.550781 57.058594 129.699219 58.273438 C 127.851562 58.503906 125.949219 58.621094 124.039062 58.621094 C 117.410156 58.621094 110.671875 57.171875 104.546875 54.425781 L 101.265625 59.351562 C 101.777344 59.828125 102.289062 60.289062 102.839844 60.761719 C 108.777344 65.792969 115.804688 69.359375 122.601562 72.800781 L 123.003906 73.046875 L 116.203125 101.285156 L 118.21875 102.386719 C 120.816406 103.804688 124.132812 104.523438 128.074219 104.523438 C 129.167969 104.523438 130.332031 104.46875 131.527344 104.359375 C 152.015625 102.511719 171.644531 89.617188 181.542969 71.511719 L 183.195312 68.480469 L 159.988281 59.738281 C 159.992188 59.738281 159.941406 59.71875 159.84375 59.644531 Z M 159.84375 59.644531 " style=" stroke:none;fill-rule:nonzero;fill:rgb(58.039216%,77.647059%,40.784314%);fill-opacity:1;" />
<path d="M 511.742188 350.792969 C 483.121094 280.105469 464.59375 205.808594 456.671875 129.960938 C 456.574219 129.019531 456.101562 128.15625 455.359375 127.566406 C 454.617188 126.972656 453.675781 126.707031 452.730469 126.820312 L 394.496094 133.863281 L 393.695312 130.53125 C 399.9375 127.34375 406.25 123.921875 411.796875 119.214844 C 419.066406 113.042969 423.765625 105.378906 425.03125 97.632812 C 427.007812 85.546875 420.828125 72.414062 409.292969 64.167969 C 400.417969 57.828125 389.382812 54.742188 378.222656 55.453125 C 372.492188 55.824219 367 57.1875 361.898438 59.496094 C 353.386719 63.347656 346.820312 70.023438 343.882812 77.800781 C 339.644531 89.023438 342.925781 101.023438 347.253906 112.535156 L 317.792969 123.644531 C 316.398438 124.167969 315.378906 125.324219 314.996094 126.816406 C 314.558594 128.507812 314.664062 131.191406 318.394531 138.082031 C 306.25 138.546875 294.035156 139.089844 281.867188 139.671875 C 282.082031 138.570312 282.328125 137.3125 282.601562 135.90625 C 284.660156 125.320312 290.03125 97.667969 291.835938 93.179688 C 292.363281 92.578125 292.695312 91.792969 292.71875 90.929688 C 292.765625 89.011719 291.277344 87.40625 289.363281 87.3125 C 282.8125 86.980469 276.265625 86.644531 269.71875 86.304688 C 244.78125 85.023438 219.039062 83.703125 193.605469 82.730469 C 197.335938 75.835938 197.4375 73.15625 197.003906 71.464844 C 196.621094 69.972656 195.601562 68.816406 194.207031 68.289062 L 164.742188 57.183594 C 169.070312 45.671875 172.351562 33.671875 168.113281 22.449219 C 165.175781 14.667969 158.609375 7.996094 150.097656 4.140625 C 144.996094 1.832031 139.503906 0.472656 133.777344 0.101562 C 122.617188 -0.613281 111.585938 2.472656 102.707031 8.816406 C 91.171875 17.058594 84.992188 30.195312 86.96875 42.277344 C 88.234375 50.027344 92.933594 57.691406 100.203125 63.859375 C 105.75 68.566406 112.0625 71.992188 118.304688 75.179688 L 117.503906 78.507812 L 59.269531 71.46875 C 58.324219 71.355469 57.382812 71.621094 56.640625 72.214844 C 55.898438 72.804688 55.425781 73.667969 55.328125 74.609375 C 47.40625 150.457031 28.878906 224.753906 0.257812 295.441406 C -0.105469 296.34375 -0.0820312 297.355469 0.320312 298.242188 C 0.726562 299.125 1.480469 299.804688 2.402344 300.117188 C 69.269531 322.710938 138.824219 337.296875 209.132812 343.46875 C 210.546875 343.589844 212.011719 343.695312 213.488281 343.695312 C 217.269531 343.695312 221.101562 343.023438 224.195312 340.351562 C 227.164062 337.78125 228.429688 334.074219 229.351562 331.367188 C 232.246094 322.882812 235.101562 314.253906 237.835938 305.714844 C 241.929688 292.9375 245.230469 281.886719 248.460938 270.609375 C 256.414062 302.292969 264.871094 332.046875 274.164062 361.066406 C 276.894531 369.589844 279.746094 378.222656 282.648438 386.71875 C 283.570312 389.425781 284.835938 393.136719 287.804688 395.707031 C 290.898438 398.378906 294.726562 399.046875 298.507812 399.046875 C 299.984375 399.046875 301.453125 398.945312 302.867188 398.820312 C 373.179688 392.652344 442.730469 378.066406 509.597656 355.46875 C 510.519531 355.15625 511.273438 354.480469 511.679688 353.59375 C 512.085938 352.707031 512.109375 351.695312 511.742188 350.792969 Z M 388.007812 125.492188 C 387.949219 125.519531 387.902344 125.558594 387.847656 125.589844 C 375.386719 127.085938 362.335938 121.707031 354.5625 111.847656 C 352.464844 106.425781 350.601562 101.089844 349.644531 95.941406 C 351.140625 98.652344 352.976562 101.207031 355.148438 103.511719 C 361.875 110.65625 371.390625 115.308594 381.933594 116.613281 C 383.941406 116.859375 385.953125 116.980469 387.960938 116.980469 C 395.105469 116.980469 402.1875 115.425781 408.675781 112.519531 C 408.203125 112.960938 407.722656 113.398438 407.21875 113.824219 C 401.574219 118.617188 394.675781 122.113281 388.007812 125.492188 Z M 364.816406 65.933594 C 369.136719 63.976562 373.800781 62.824219 378.679688 62.507812 C 388.21875 61.886719 397.628906 64.523438 405.183594 69.917969 C 412.855469 75.402344 419.8125 85.746094 418.054688 96.488281 C 417.96875 97.03125 417.847656 97.574219 417.714844 98.117188 C 408.570312 106.738281 395.273438 111.136719 382.800781 109.59375 C 373.890625 108.492188 365.894531 104.609375 360.292969 98.664062 C 354.539062 92.550781 351.597656 84.351562 352.328125 76.59375 C 355.0625 72.144531 359.4375 68.367188 364.816406 65.933594 Z M 353.078125 117.894531 C 353.421875 117.765625 353.726562 117.574219 354.007812 117.351562 C 361.707031 125.265625 372.703125 129.890625 383.742188 129.890625 C 384.578125 129.890625 385.414062 129.855469 386.246094 129.800781 L 392.339844 155.105469 C 389.558594 156.628906 385.679688 157.179688 380.742188 156.726562 C 361.140625 154.953125 342.53125 142.699219 333.089844 125.429688 Z M 329.273438 126.867188 C 339.253906 145.550781 359.28125 158.839844 380.378906 160.75 C 381.601562 160.863281 382.777344 160.917969 383.902344 160.917969 C 387.574219 160.917969 390.707031 160.316406 393.289062 159.140625 C 393.527344 160.339844 393.695312 161.785156 393.21875 162.453125 C 390.90625 165.65625 380.269531 164.453125 375.726562 163.941406 C 374.800781 163.835938 373.964844 163.742188 373.25 163.675781 C 363.808594 162.804688 355.769531 160.847656 348.671875 157.6875 C 341.632812 154.554688 335.449219 150.019531 330.789062 144.574219 C 329.238281 142.734375 323.519531 133.550781 322.175781 129.542969 Z M 346.972656 164.632812 C 350.527344 166.140625 354.273438 167.394531 358.273438 168.375 L 341.21875 188.128906 Z M 181.214844 89.21875 C 176.554688 94.664062 170.367188 99.199219 163.328125 102.332031 C 156.234375 105.492188 148.195312 107.449219 138.753906 108.320312 C 138.039062 108.386719 137.203125 108.480469 136.28125 108.585938 C 131.738281 109.097656 121.09375 110.300781 118.785156 107.097656 C 118.304688 106.433594 118.476562 104.988281 118.714844 103.785156 C 121.296875 104.964844 124.429688 105.5625 128.105469 105.5625 C 129.230469 105.5625 130.402344 105.507812 131.625 105.398438 C 152.722656 103.484375 172.746094 90.195312 182.730469 71.511719 L 189.828125 74.1875 C 188.484375 78.199219 182.765625 87.378906 181.214844 89.21875 Z M 165.03125 109.28125 L 170.785156 132.777344 L 153.726562 113.019531 C 157.726562 112.039062 161.472656 110.785156 165.03125 109.28125 Z M 178.910156 70.074219 C 169.472656 87.34375 150.859375 99.601562 131.257812 101.375 C 126.324219 101.824219 122.441406 101.273438 119.664062 99.75 L 125.753906 74.445312 C 126.589844 74.5 127.421875 74.535156 128.257812 74.535156 C 139.292969 74.535156 150.296875 69.910156 157.992188 61.996094 C 158.273438 62.21875 158.578125 62.410156 158.921875 62.539062 Z M 106.820312 14.566406 C 113.648438 9.6875 122 7.066406 130.589844 7.066406 C 131.496094 7.066406 132.410156 7.09375 133.320312 7.15625 C 138.195312 7.46875 142.859375 8.621094 147.183594 10.578125 C 152.5625 13.015625 156.941406 16.792969 159.671875 21.242188 C 160.402344 29 157.460938 37.199219 151.707031 43.3125 C 146.105469 49.257812 138.113281 53.140625 129.199219 54.242188 C 116.730469 55.785156 103.433594 51.386719 94.285156 42.761719 C 94.152344 42.222656 94.035156 41.679688 93.945312 41.136719 C 92.191406 30.390625 99.144531 20.046875 106.820312 14.566406 Z M 104.78125 58.46875 C 104.277344 58.042969 103.796875 57.605469 103.324219 57.164062 C 109.8125 60.074219 116.894531 61.625 124.039062 61.625 C 126.046875 61.625 128.0625 61.503906 130.066406 61.253906 C 140.613281 59.953125 150.125 55.300781 156.855469 48.15625 C 159.023438 45.851562 160.863281 43.296875 162.355469 40.585938 C 161.402344 45.734375 159.535156 51.070312 157.4375 56.496094 C 149.664062 66.351562 136.609375 71.71875 124.152344 70.234375 C 124.097656 70.203125 124.050781 70.164062 123.996094 70.136719 C 117.324219 66.757812 110.429688 63.265625 104.78125 58.46875 Z M 231.105469 303.554688 C 228.382812 312.050781 225.542969 320.640625 222.664062 329.082031 C 221.773438 331.691406 220.984375 333.78125 219.570312 335.003906 C 217.359375 336.914062 213.507812 336.75 209.753906 336.421875 C 141.246094 330.410156 73.460938 316.34375 8.214844 294.605469 C 35.84375 225.464844 53.921875 152.933594 61.980469 78.914062 L 115.839844 85.425781 L 112.117188 100.894531 C 111.546875 103.261719 110.484375 107.671875 113.050781 111.230469 C 115.976562 115.292969 121.539062 116.339844 127.179688 116.339844 C 130.648438 116.339844 134.148438 115.941406 137.078125 115.609375 C 137.945312 115.511719 138.730469 115.421875 139.402344 115.363281 C 141.582031 115.160156 143.683594 114.894531 145.734375 114.582031 L 175.035156 148.519531 C 175.726562 149.320312 176.710938 149.746094 177.714844 149.746094 C 178.265625 149.746094 178.816406 149.617188 179.332031 149.351562 C 180.785156 148.601562 181.535156 146.957031 181.144531 145.371094 L 171.527344 106.089844 C 177.328125 102.796875 182.46875 98.625 186.585938 93.816406 C 187.082031 93.234375 188.191406 91.65625 189.488281 89.644531 C 216.121094 90.625 243.183594 92.015625 269.355469 93.363281 C 274.285156 93.617188 279.210938 93.871094 284.140625 94.121094 C 283.355469 97 282.464844 101.050781 281.253906 106.730469 C 279.269531 116.003906 277.101562 127.167969 275.664062 134.554688 C 275.246094 136.714844 274.878906 138.597656 274.597656 140.023438 C 263.695312 140.554688 252.847656 141.113281 242.152344 141.664062 C 235.652344 141.996094 229.144531 142.332031 222.640625 142.660156 C 220.726562 142.757812 219.238281 144.363281 219.285156 146.28125 C 219.308594 147.132812 219.632812 147.910156 220.152344 148.511719 C 221.988281 153.109375 227.628906 182.121094 229.789062 193.222656 C 230.597656 197.382812 231.183594 200.390625 231.417969 201.449219 C 233.699219 211.761719 236.347656 222.113281 238.910156 232.121094 C 240.632812 238.851562 242.414062 245.8125 244.050781 252.628906 C 244.378906 254 244.710938 255.359375 245.039062 256.71875 C 240.65625 272.398438 236.59375 286.417969 231.105469 303.554688 Z M 302.25 391.777344 C 298.492188 392.105469 294.640625 392.269531 292.429688 390.355469 C 291.019531 389.136719 290.226562 387.042969 289.339844 384.4375 C 286.453125 375.980469 283.613281 367.390625 280.898438 358.910156 C 269.917969 324.628906 260.113281 289.328125 250.921875 250.984375 C 249.273438 244.113281 247.484375 237.125 245.753906 230.371094 C 243.207031 220.417969 240.570312 210.125 238.316406 199.925781 C 238.101562 198.953125 237.496094 195.832031 236.726562 191.878906 C 235.230469 184.183594 232.96875 172.550781 230.902344 162.859375 C 229.761719 157.496094 228.800781 153.300781 228.050781 150.386719 C 227.96875 150.078125 227.890625 149.777344 227.8125 149.480469 C 232.714844 149.230469 237.613281 148.976562 242.515625 148.726562 C 268.730469 147.375 295.835938 145.984375 322.515625 145 C 323.8125 147.011719 324.921875 148.589844 325.417969 149.171875 C 329.535156 153.984375 334.675781 158.152344 340.472656 161.445312 L 330.855469 200.722656 C 330.46875 202.3125 331.21875 203.957031 332.667969 204.707031 C 333.183594 204.96875 333.738281 205.097656 334.289062 205.097656 C 335.289062 205.097656 336.273438 204.671875 336.964844 203.875 L 366.265625 169.9375 C 368.320312 170.246094 370.421875 170.515625 372.601562 170.714844 C 373.273438 170.777344 374.0625 170.867188 374.933594 170.964844 C 377.859375 171.296875 381.355469 171.691406 384.824219 171.691406 C 390.464844 171.691406 396.027344 170.648438 398.953125 166.585938 C 401.515625 163.027344 400.457031 158.617188 399.886719 156.25 L 396.160156 140.78125 L 450.023438 134.269531 C 458.082031 208.289062 476.160156 280.816406 503.789062 349.960938 C 438.542969 371.699219 370.757812 385.765625 302.25 391.777344 Z M 302.25 391.777344 " style=" stroke:none;fill-rule:nonzero;fill:rgb(0%,0%,0%);fill-opacity:1;" />
<path d="M 221.640625 211.539062 L 69.9375 188.726562 C 68.6875 188.53125 67.53125 189.398438 67.34375 190.644531 C 67.15625 191.890625 68.015625 193.050781 69.261719 193.238281 L 220.964844 216.046875 C 221.078125 216.066406 221.191406 216.074219 221.304688 216.074219 C 222.414062 216.074219 223.386719 215.261719 223.558594 214.132812 C 223.742188 212.886719 222.886719 211.722656 221.640625 211.539062 Z M 221.640625 211.539062 " style=" stroke:none;fill-rule:nonzero;fill:rgb(0%,0%,0%);fill-opacity:1;" />
<path d="M 214.269531 225.425781 C 169.339844 220.929688 124.183594 213.785156 80.054688 204.191406 C 78.824219 203.921875 77.609375 204.703125 77.34375 205.933594 C 77.074219 207.164062 77.855469 208.378906 79.085938 208.648438 C 123.382812 218.28125 168.710938 225.453125 213.8125 229.96875 C 213.890625 229.976562 213.96875 229.980469 214.042969 229.980469 C 215.199219 229.980469 216.191406 229.101562 216.308594 227.925781 C 216.4375 226.671875 215.523438 225.554688 214.269531 225.425781 Z M 214.269531 225.425781 " style=" stroke:none;fill-rule:nonzero;fill:rgb(0%,0%,0%);fill-opacity:1;" />
<path d="M 211.355469 243.472656 L 59.652344 220.664062 C 58.402344 220.464844 57.246094 221.332031 57.058594 222.578125 C 56.871094 223.824219 57.730469 224.984375 58.976562 225.171875 L 210.679688 247.984375 C 210.792969 248 210.90625 248.007812 211.019531 248.007812 C 212.128906 248.007812 213.101562 247.199219 213.273438 246.070312 C 213.460938 244.820312 212.601562 243.660156 211.355469 243.472656 Z M 211.355469 243.472656 " style=" stroke:none;fill-rule:nonzero;fill:rgb(0%,0%,0%);fill-opacity:1;" />
<path d="M 203.984375 257.363281 C 159.054688 252.867188 113.898438 245.71875 69.769531 236.125 C 68.539062 235.855469 67.324219 236.636719 67.058594 237.871094 C 66.789062 239.097656 67.570312 240.316406 68.800781 240.582031 C 113.097656 250.214844 158.425781 257.386719 203.527344 261.902344 C 203.605469 261.910156 203.683594 261.914062 203.757812 261.914062 C 204.917969 261.914062 205.90625 261.035156 206.027344 259.859375 C 206.152344 258.605469 205.238281 257.488281 203.984375 257.363281 Z M 203.984375 257.363281 " style=" stroke:none;fill-rule:nonzero;fill:rgb(0%,0%,0%);fill-opacity:1;" />
<path d="M 202.15625 274.867188 L 50.453125 252.054688 C 49.203125 251.859375 48.042969 252.726562 47.859375 253.972656 C 47.671875 255.21875 48.527344 256.378906 49.773438 256.566406 L 201.476562 279.375 C 201.59375 279.394531 201.707031 279.402344 201.820312 279.402344 C 202.929688 279.402344 203.902344 278.589844 204.070312 277.460938 C 204.257812 276.214844 203.402344 275.054688 202.15625 274.867188 Z M 202.15625 274.867188 " style=" stroke:none;fill-rule:nonzero;fill:rgb(0%,0%,0%);fill-opacity:1;" />
<path d="M 194.78125 288.753906 C 149.851562 284.257812 104.695312 277.113281 60.570312 267.519531 C 59.339844 267.25 58.125 268.03125 57.855469 269.261719 C 57.589844 270.492188 58.371094 271.707031 59.601562 271.976562 C 103.898438 281.609375 149.226562 288.78125 194.328125 293.296875 C 194.40625 293.304688 194.480469 293.304688 194.558594 293.304688 C 195.714844 293.304688 196.707031 292.429688 196.824219 291.253906 C 196.949219 290 196.035156 288.882812 194.78125 288.753906 Z M 194.78125 288.753906 " style=" stroke:none;fill-rule:nonzero;fill:rgb(0%,0%,0%);fill-opacity:1;" />
<path d="M 442.46875 223.550781 L 292.0625 253.757812 C 290.820312 254 290.027344 255.207031 290.277344 256.445312 C 290.523438 257.679688 291.726562 258.480469 292.960938 258.230469 L 443.367188 228.023438 C 443.480469 228 443.589844 227.96875 443.695312 227.929688 C 444.738281 227.554688 445.378906 226.460938 445.152344 225.339844 C 444.90625 224.105469 443.703125 223.304688 442.46875 223.550781 Z M 442.46875 223.550781 " style=" stroke:none;fill-rule:nonzero;fill:rgb(0%,0%,0%);fill-opacity:1;" />
<path d="M 440.265625 239.121094 C 396.488281 250.191406 351.597656 258.847656 306.839844 264.851562 C 305.589844 265.019531 304.714844 266.167969 304.882812 267.414062 C 305.050781 268.664062 306.199219 269.539062 307.445312 269.371094 C 352.375 263.34375 397.4375 254.65625 441.382812 243.542969 C 441.457031 243.523438 441.53125 243.5 441.601562 243.476562 C 442.691406 243.082031 443.324219 241.917969 443.035156 240.773438 C 442.726562 239.550781 441.488281 238.8125 440.265625 239.121094 Z M 440.265625 239.121094 " style=" stroke:none;fill-rule:nonzero;fill:rgb(0%,0%,0%);fill-opacity:1;" />
<path d="M 443.671875 257.082031 L 293.265625 287.289062 C 292.023438 287.527344 291.230469 288.738281 291.480469 289.972656 C 291.726562 291.207031 292.929688 292.007812 294.164062 291.757812 L 444.570312 261.550781 C 444.683594 261.53125 444.796875 261.496094 444.898438 261.460938 C 445.941406 261.082031 446.582031 259.988281 446.355469 258.867188 C 446.109375 257.632812 444.90625 256.832031 443.671875 257.082031 Z M 443.671875 257.082031 " style=" stroke:none;fill-rule:nonzero;fill:rgb(0%,0%,0%);fill-opacity:1;" />
<path d="M 441.46875 272.648438 C 397.691406 283.71875 352.800781 292.375 308.046875 298.378906 C 306.796875 298.546875 305.917969 299.695312 306.089844 300.941406 C 306.253906 302.191406 307.402344 303.066406 308.652344 302.898438 C 353.578125 296.875 398.640625 288.183594 442.585938 277.070312 C 442.660156 277.050781 442.734375 277.03125 442.808594 277.003906 C 443.894531 276.609375 444.527344 275.445312 444.238281 274.300781 C 443.929688 273.082031 442.691406 272.339844 441.46875 272.648438 Z M 441.46875 272.648438 " style=" stroke:none;fill-rule:nonzero;fill:rgb(0%,0%,0%);fill-opacity:1;" />
<path d="M 445.710938 289.730469 L 295.304688 319.9375 C 294.0625 320.179688 293.269531 321.386719 293.515625 322.625 C 293.765625 323.859375 294.96875 324.65625 296.203125 324.410156 L 446.605469 294.203125 C 446.722656 294.179688 446.832031 294.148438 446.9375 294.109375 C 447.980469 293.734375 448.617188 292.640625 448.394531 291.519531 C 448.144531 290.285156 446.945312 289.484375 445.710938 289.730469 Z M 445.710938 289.730469 " style=" stroke:none;fill-rule:nonzero;fill:rgb(0%,0%,0%);fill-opacity:1;" />
<path d="M 443.507812 305.300781 C 399.730469 316.371094 354.839844 325.027344 310.082031 331.03125 C 308.832031 331.195312 307.957031 332.34375 308.125 333.59375 C 308.292969 334.839844 309.441406 335.71875 310.6875 335.550781 C 355.617188 329.523438 400.679688 320.835938 444.625 309.722656 C 444.699219 309.703125 444.773438 309.679688 444.84375 309.65625 C 445.933594 309.261719 446.566406 308.097656 446.277344 306.953125 C 445.96875 305.734375 444.726562 304.992188 443.507812 305.300781 Z M 443.507812 305.300781 " style=" stroke:none;fill-rule:nonzero;fill:rgb(0%,0%,0%);fill-opacity:1;" />
</g>
</svg>