<svg height="512pt" viewBox="0 0 512 512" width="512pt" xmlns="http://www.w3.org/2000/svg"><path d="m412 320c-49.625 0-90-40.375-90-90s40.375-90 90-90 90 40.375 90 90-40.375 90-90 90zm0 0" fill="#7fe881"/><path d="m412 10c44.109375 0 80 35.890625 80 80 0 21.78125-19.5 56.171875-39.230469 85.410156-20.257812 30-40.769531 54.589844-40.769531 54.589844s-20.511719-24.589844-40.769531-54.589844c-19.730469-29.238281-39.230469-63.628906-39.230469-85.410156 0-44.109375 35.890625-80 80-80zm0 0" fill="#76e2f8"/><path d="m442 90c0 16.570312-13.429688 30-30 30s-30-13.429688-30-30 13.429688-30 30-30 30 13.429688 30 30zm0 0" fill="#ececf1"/><path d="m100 502c-49.625 0-90-40.375-90-90s40.375-90 90-90 90 40.375 90 90-40.375 90-90 90zm0 0" fill="#7fe881"/><path d="m100 193c44.109375 0 80 35.890625 80 80 0 21.78125-19.5 56.171875-39.230469 85.410156-20.257812 30-40.769531 54.589844-40.769531 54.589844s-20.511719-24.589844-40.769531-54.589844c-19.730469-29.238281-39.230469-63.628906-39.230469-85.410156 0-44.109375 35.890625-80 80-80zm0 0" fill="#ff637b"/><path d="m130 273c0 16.570312-13.429688 30-30 30s-30-13.429688-30-30 13.429688-30 30-30 30 13.429688 30 30zm0 0" fill="#ececf1"/><path d="m0 412c0 55.140625 44.859375 100 100 100s100-44.859375 100-100c0-14.15625-3.0625-28-8.722656-40.667969l36.402344-21.234375c4.769531-2.78125 6.378906-8.90625 3.597656-13.675781-2.785156-4.769531-8.90625-6.382813-13.675782-3.601563l-36.253906 21.152344c-4.394531-6.167968-9.496094-11.863281-15.238281-16.941406 10.21875-17.488281 23.890625-43.757812 23.890625-64.03125 0-49.625-40.375-90-90-90-50.09375 0-90.582031 40.96875-89.992188 91.074219v.136719c.390626 15.234374 8.414063 36.300781 23.890626 62.816406-21.371094 18.898437-33.898438 46.300781-33.898438 74.972656zm100-209c38.597656 0 70 31.402344 70 70 0 31.625-50.550781 99.453125-70 124.066406-20.648438-26.125-69.117188-91.492187-69.996094-123.300781-.417968-38.921875 31.066406-70.765625 69.996094-70.765625zm-7.679688 216.40625c1.902344 2.277344 4.714844 3.59375 7.679688 3.59375s5.777344-1.316406 7.679688-3.59375c13.316406-15.953125 32.949218-42.136719 47.734374-65.027344 15.546876 15 24.585938 35.851563 24.585938 57.621094 0 44.113281-35.886719 80-80 80s-80-35.886719-80-80c0-21.769531 9.039062-42.621094 24.585938-57.621094 14.789062 22.894532 34.605468 49.300782 47.734374 65.027344zm0 0"/><path d="m100 313c22.054688 0 40-17.945312 40-40s-17.945312-40-40-40-40 17.945312-40 40 17.945312 40 40 40zm0-60c11.027344 0 20 8.972656 20 20s-8.972656 20-20 20-20-8.972656-20-20 8.972656-20 20-20zm0 0"/><path d="m477.714844 154.6875c16.125-27.511719 24.285156-49.207031 24.285156-64.6875 0-49.625-40.375-90-90-90s-90 40.375-90 90c0 15.480469 8.160156 37.175781 24.285156 64.6875-21.613281 18.910156-34.285156 46.433594-34.285156 75.3125 0 15.101562 3.371094 29.429688 9.390625 42.277344l-34.703125 20.246094c-4.773438 2.78125-6.382812 8.90625-3.601562 13.675781 2.792968 4.785156 8.921874 6.375 13.679687 3.601562l34.878906-20.347656c18.234375 24.582031 47.464844 40.546875 80.355469 40.546875 55.140625 0 100-44.859375 100-100 0-28.878906-12.671875-56.402344-34.285156-75.3125zm-65.714844-134.6875c38.597656 0 70 31.402344 70 70 0 31.726562-50.226562 99.042969-70 124.066406-19.789062-25.035156-70-92.347656-70-124.066406 0-38.597656 31.402344-70 70-70zm0 290c-44.113281 0-80-35.886719-80-80 0-21.980469 9.1875-42.980469 24.988281-58.003906 14.785157 22.820312 34.457031 48.984375 47.332031 64.410156 1.902344 2.277344 4.714844 3.59375 7.679688 3.59375s5.777344-1.316406 7.679688-3.59375c13.503906-16.179688 32.789062-41.960938 47.335937-64.410156 15.796875 15.023437 24.984375 36.023437 24.984375 58.003906 0 44.113281-35.886719 80-80 80zm0 0"/><path d="m412 130c22.054688 0 40-17.945312 40-40s-17.945312-40-40-40-40 17.945312-40 40 17.945312 40 40 40zm0-60c11.027344 0 20 8.972656 20 20s-8.972656 20-20 20-20-8.972656-20-20 8.972656-20 20-20zm0 0"/><path d="m257 311c-5.519531 0-10 4.480469-10 10s4.480469 10 10 10 10-4.480469 10-10-4.480469-10-10-10zm0 0"/></svg>